<?xml version="1.0" encoding="UTF-8" standalone="no"?>
<!-- Created with Inkscape (http://www.inkscape.org/) -->

<svg
   width="64"
   height="64"
   viewBox="0 0 16.933329 16.933329"
   version="1.1"
   id="svg1"
   sodipodi:docname="html.svg"
   inkscape:version="1.3.2 (091e20ef0f, 2023-11-25, custom)"
   xmlns:inkscape="http://www.inkscape.org/namespaces/inkscape"
   xmlns:sodipodi="http://sodipodi.sourceforge.net/DTD/sodipodi-0.dtd"
   xmlns="http://www.w3.org/2000/svg"
   xmlns:svg="http://www.w3.org/2000/svg">
  <sodipodi:namedview
     id="namedview1"
     pagecolor="#ffffff"
     bordercolor="#000000"
     borderopacity="0.25"
     inkscape:showpageshadow="2"
     inkscape:pageopacity="0.0"
     inkscape:pagecheckerboard="0"
     inkscape:deskcolor="#d1d1d1"
     inkscape:document-units="mm"
     inkscape:zoom="8.3027495"
     inkscape:cx="14.513265"
     inkscape:cy="33.543105"
     inkscape:window-width="2504"
     inkscape:window-height="1371"
     inkscape:window-x="0"
     inkscape:window-y="0"
     inkscape:window-maximized="1"
     inkscape:current-layer="layer1" />
  <defs
     id="defs1">
    <clipPath
       clipPathUnits="userSpaceOnUse"
       id="clipPath5158">
      <path
         style="display:inline;fill:#ece9d8;fill-opacity:1;stroke:none;enable-background:new"
         d="m 212.84,223.64 c -1.662,0 -3,1.338 -3,3 v 50 c 0,1.662 1.338,3 3,3 h 38 c 1.662,0 3,-1.338 3,-3 v -35 c -5.5,-0.5 -16.5,-1.5 -16.5,-1.5 l -1.5,-16.5 z"
         id="path5160"
         inkscape:connector-curvature="0"
         sodipodi:nodetypes="sssssscccs" />
    </clipPath>
    <filter
       inkscape:collect="always"
       style="color-interpolation-filters:sRGB"
       id="filter5162"
       x="-0.061359868"
       width="1.1227197"
       y="-0.051627908"
       height="1.1032558">
      <feGaussianBlur
         inkscape:collect="always"
         stdDeviation="0.4625"
         id="feGaussianBlur5164" />
    </filter>
    <filter
       inkscape:collect="always"
       style="color-interpolation-filters:sRGB"
       id="filter4497"
       x="-0.027272727"
       width="1.0545455"
       y="-0.021428571"
       height="1.0428571">
      <feGaussianBlur
         inkscape:collect="always"
         stdDeviation="4"
         id="feGaussianBlur4499" />
    </filter>
    <filter
       inkscape:collect="always"
       style="color-interpolation-filters:sRGB"
       id="filter4507"
       x="-0.027272727"
       width="1.0545455"
       y="-0.021428571"
       height="1.0428571">
      <feGaussianBlur
         inkscape:collect="always"
         stdDeviation="4"
         id="feGaussianBlur4509" />
    </filter>
  </defs>
  <g
     inkscape:label="Layer 1"
     inkscape:groupmode="layer"
     id="layer1">
    <path
       inkscape:connector-curvature="0"
       id="path4501"
       d="m 312,-192 c -13.296,0 -24,10.704 -24,24 v 400 c 0,13.296 10.704,24 24,24 h 304 c 13.296,0 24,-10.704 24,-24 V -48 L 496,-192 Z"
       style="display:inline;opacity:0.1;fill:#000000;fill-opacity:1;stroke:none;filter:url(#filter4507);enable-background:new"
       transform="matrix(0.03117425,0,0,0.03117425,-5.9132103,7.4608822)" />
    <path
       style="display:inline;opacity:0.2;fill:#000000;fill-opacity:1;stroke:none;filter:url(#filter4497);enable-background:new"
       d="m 312,-192 c -13.296,0 -24,10.704 -24,24 v 400 c 0,13.296 10.704,24 24,24 h 304 c 13.296,0 24,-10.704 24,-24 V -48 L 496,-192 Z"
       id="path4491"
       inkscape:connector-curvature="0"
       transform="matrix(0.03117425,0,0,0.03117425,-5.9132103,7.4608822)" />
    <path
       sodipodi:nodetypes="sssssscccs"
       inkscape:connector-curvature="0"
       id="rect3362"
       d="m 3.8131554,1.3507296 c -0.4144926,0 -0.7481821,0.3336891 -0.7481821,0.7481817 V 14.568611 c 0,0.414492 0.3336895,0.748181 0.7481821,0.748181 h 9.4769716 c 0.414493,0 0.748181,-0.333689 0.748181,-0.748181 V 5.8398213 C 12.666643,5.7151246 9.9233087,5.4657304 9.9233087,5.4657304 L 9.5492173,1.3507296 Z"
       style="display:inline;fill:#ececec;fill-opacity:1;stroke:none;stroke-width:0.0311742;enable-background:new" />
    <path
       clip-path="url(#clipPath5158)"
       sodipodi:nodetypes="csscccc"
       inkscape:connector-curvature="0"
       id="path4104"
       d="m 235.75,223.5 v 16 c 0,1.65685 1.34315,3 3,3 l 15.09,0.14 v -4.5 l -16,-17 z"
       style="display:inline;opacity:0.1;fill:#000000;fill-opacity:1;stroke:none;filter:url(#filter5162);enable-background:new"
       transform="matrix(0.24939399,0,0,0.24939399,-49.267865,-54.423743)" />
    <g
       id="g4855"
       style="display:inline;fill:#e44d26;fill-opacity:1;enable-background:new"
       transform="matrix(0.04506087,0,0,0.04506087,-12.093566,200.09604)">
      <path
         inkscape:connector-curvature="0"
         id="path4893"
         d="m 372.29883,-4322.084 16.68945,187.207 74.90039,20.793 75.10547,-20.8222 16.70703,-187.1778 z m 34.12695,38.2676 h 57.49414 0.0801 57.43555 l -0.54883,6.1582 -1.04492,11.6406 -0.46094,5.1602 h -0.0742 -55.30664 -0.0801 -32.40039 l 2.09766,23.5117 h 30.30273 0.0801 47.10352 6.1875 l -0.56055,6.166 -5.39453,60.4473 -0.34571,3.8789 -46.99023,13.0234 v 0 l -0.10547,0.029 -47.0332,-13.0566 -3.2168,-36.0508 h 10.62305 12.42578 l 1.63476,18.3105 25.57032,6.9063 0.0215,-0.01 v 0 l 25.60938,-6.9121 2.66406,-29.7774 h -28.19336 -0.0801 -51.30078 l -5.64258,-63.2734 -0.55078,-6.1582 z"
         style="opacity:0.5;fill:#ffffff;fill-opacity:1" />
      <path
         style="opacity:1;fill:#e44d26;fill-opacity:1"
         d="m 372.29883,-4324.084 16.68945,187.207 74.90039,20.793 75.10547,-20.8222 16.70703,-187.1778 z m 34.12695,38.2676 h 57.49414 0.0801 57.43555 l -0.54883,6.1582 -1.04492,11.6406 -0.46094,5.1602 h -0.0742 -55.30664 -0.0801 -32.40039 l 2.09766,23.5117 h 30.30273 0.0801 47.10352 6.1875 l -0.56055,6.166 -5.39453,60.4473 -0.34571,3.8789 -46.99023,13.0234 v 0 l -0.10547,0.029 -47.0332,-13.0566 -3.2168,-36.0508 h 10.62305 12.42578 l 1.63476,18.3105 25.57032,6.9063 0.0215,-0.01 v 0 l 25.60938,-6.9121 2.66406,-29.7774 h -28.19336 -0.0801 -51.30078 l -5.64258,-63.2734 -0.55078,-6.1582 z"
         id="polygon6"
         inkscape:connector-curvature="0" />
      <path
         id="path4849"
         transform="translate(0,-244)"
         d="m 372.29883,-4080.084 16.68945,187.207 74.90039,20.793 0.11133,-0.031 v -39.7149 l -0.10547,0.029 -47.0332,-13.0566 -3.2168,-36.0508 h 10.62305 12.42578 l 1.63476,18.3105 25.57032,6.9063 0.0215,-0.01 0.0801,-0.021 v -36.6679 h -0.0801 -51.30078 l -5.64258,-63.2735 -0.55078,-6.1523 h 57.49414 0.0801 v -38.2676 h -91.70117 z m 59.2207,61.2266 2.09766,23.5117 h 30.30273 0.0801 v -23.5117 h -0.0801 z"
         style="opacity:0.1;fill:#000000;fill-opacity:1"
         inkscape:connector-curvature="0" />
      <path
         style="opacity:0.2;fill:#000000;fill-opacity:1"
         d="m 372.29883,-4080.084 0.17773,2 h 183.04688 l 0.17773,-2 z m 34.12695,40.2676 0.55078,6.1523 5.64258,63.2735 h 51.30078 0.0801 28.01367 l 0.17969,-2 h -28.19336 -0.0801 -51.30078 l -5.64258,-63.2735 -0.37109,-4.1523 z m 114.83203,0 -0.37109,4.1582 -1.04492,11.6406 -0.46094,5.1602 h -0.0742 -55.30664 -0.0801 -32.40039 l 0.17774,2 h 32.22265 0.0801 55.30664 0.0742 l 0.46094,-5.1602 1.04492,-11.6406 0.54883,-6.1582 z m -4.14843,46.4707 -0.37891,4.166 -5.39453,60.4473 -0.34571,3.8789 -46.99023,13.0234 -0.10547,0.029 -47.0332,-13.0566 -3.03906,-34.0508 h -0.17774 l 3.2168,36.0508 47.0332,13.0566 0.10547,-0.029 46.99023,-13.0234 0.34571,-3.8789 5.39453,-60.4473 0.56055,-6.166 z"
         transform="translate(0,-244)"
         id="path4885"
         inkscape:connector-curvature="0" />
    </g>
    <path
       style="display:inline;fill:#f2f2f2;fill-opacity:1;stroke:none;stroke-width:0.0311742;enable-background:new"
       d="m 9.5492173,1.3507296 v 3.7409099 c 0,0.4132083 0.3349739,0.7481818 0.7481827,0.7481818 h 3.740908 z"
       id="path4060"
       inkscape:connector-curvature="0" />
    <path
       id="path4233"
       d="m 3.8131554,1.3507296 c -0.4144926,0 -0.7481821,0.3336891 -0.7481821,0.7481817 v 0.062349 c 0,-0.4144931 0.3336895,-0.7481822 0.7481821,-0.7481822 h 5.7360619 v -0.062348 z"
       style="display:inline;opacity:0.2;fill:#ffffff;fill-opacity:1;stroke:none;stroke-width:0.0311742;enable-background:new"
       inkscape:connector-curvature="0" />
    <path
       style="display:inline;opacity:0.05;fill:#000000;fill-opacity:1;stroke:none;stroke-width:0.0311742;enable-background:new"
       d="m 3.0649733,14.506262 v 0.06235 c 0,0.414492 0.3336895,0.748182 0.7481821,0.748182 h 9.4769716 c 0.414493,0 0.748181,-0.33369 0.748181,-0.748182 v -0.06235 c 0,0.414493 -0.333688,0.748182 -0.748181,0.748182 H 3.8131554 c -0.4144926,0 -0.7481821,-0.333689 -0.7481821,-0.748182 z"
       id="path4672"
       inkscape:connector-curvature="0" />
  </g>
</svg>
