<?xml version="1.0" encoding="UTF-8" standalone="no"?>
<!-- Created with Inkscape (http://www.inkscape.org/) -->

<svg
   width="64"
   height="64"
   viewBox="0 0 16.933329 16.933329"
   version="1.1"
   id="svg1"
   sodipodi:docname="js.svg"
   inkscape:version="1.3.2 (091e20ef0f, 2023-11-25, custom)"
   xmlns:inkscape="http://www.inkscape.org/namespaces/inkscape"
   xmlns:sodipodi="http://sodipodi.sourceforge.net/DTD/sodipodi-0.dtd"
   xmlns="http://www.w3.org/2000/svg"
   xmlns:svg="http://www.w3.org/2000/svg">
  <sodipodi:namedview
     id="namedview1"
     pagecolor="#ffffff"
     bordercolor="#000000"
     borderopacity="0.25"
     inkscape:showpageshadow="2"
     inkscape:pageopacity="0.0"
     inkscape:pagecheckerboard="0"
     inkscape:deskcolor="#d1d1d1"
     inkscape:document-units="mm"
     inkscape:zoom="8"
     inkscape:cx="23.6875"
     inkscape:cy="35.8125"
     inkscape:window-width="2504"
     inkscape:window-height="1371"
     inkscape:window-x="0"
     inkscape:window-y="0"
     inkscape:window-maximized="1"
     inkscape:current-layer="layer1" />
  <defs
     id="defs1">
    <clipPath
       clipPathUnits="userSpaceOnUse"
       id="clipPath5158">
      <path
         style="display:inline;fill:#ece9d8;fill-opacity:1;stroke:none;enable-background:new"
         d="m 212.84,223.64 c -1.662,0 -3,1.338 -3,3 v 50 c 0,1.662 1.338,3 3,3 h 38 c 1.662,0 3,-1.338 3,-3 v -35 c -5.5,-0.5 -16.5,-1.5 -16.5,-1.5 l -1.5,-16.5 z"
         id="path5160"
         inkscape:connector-curvature="0"
         sodipodi:nodetypes="sssssscccs" />
    </clipPath>
    <filter
       inkscape:collect="always"
       style="color-interpolation-filters:sRGB"
       id="filter5162"
       x="-0.061359868"
       width="1.1227197"
       y="-0.051627908"
       height="1.1032558">
      <feGaussianBlur
         inkscape:collect="always"
         stdDeviation="0.4625"
         id="feGaussianBlur5164" />
    </filter>
    <filter
       inkscape:collect="always"
       style="color-interpolation-filters:sRGB"
       id="filter4497"
       x="-0.027272727"
       width="1.0545455"
       y="-0.021428571"
       height="1.0428571">
      <feGaussianBlur
         inkscape:collect="always"
         stdDeviation="4"
         id="feGaussianBlur4499" />
    </filter>
    <filter
       inkscape:collect="always"
       style="color-interpolation-filters:sRGB"
       id="filter4507"
       x="-0.027272727"
       width="1.0545455"
       y="-0.021428571"
       height="1.0428571">
      <feGaussianBlur
         inkscape:collect="always"
         stdDeviation="4"
         id="feGaussianBlur4509" />
    </filter>
  </defs>
  <g
     inkscape:label="Layer 1"
     inkscape:groupmode="layer"
     id="layer1">
    <path
       inkscape:connector-curvature="0"
       id="path4501"
       d="m 312,-192 c -13.296,0 -24,10.704 -24,24 v 400 c 0,13.296 10.704,24 24,24 h 304 c 13.296,0 24,-10.704 24,-24 V -48 L 496,-192 Z"
       style="display:inline;opacity:0.1;fill:#000000;fill-opacity:1;stroke:none;filter:url(#filter4507);enable-background:new"
       transform="matrix(0.03117425,0,0,0.03117425,-5.9132103,7.4608822)" />
    <path
       style="display:inline;opacity:0.2;fill:#000000;fill-opacity:1;stroke:none;filter:url(#filter4497);enable-background:new"
       d="m 312,-192 c -13.296,0 -24,10.704 -24,24 v 400 c 0,13.296 10.704,24 24,24 h 304 c 13.296,0 24,-10.704 24,-24 V -48 L 496,-192 Z"
       id="path4491"
       inkscape:connector-curvature="0"
       transform="matrix(0.03117425,0,0,0.03117425,-5.9132103,7.4608822)" />
    <path
       sodipodi:nodetypes="sssssscccs"
       inkscape:connector-curvature="0"
       id="rect3362"
       d="m 3.8131554,1.3507296 c -0.4144926,0 -0.7481821,0.3336891 -0.7481821,0.7481817 V 14.568611 c 0,0.414492 0.3336895,0.748181 0.7481821,0.748181 h 9.4769716 c 0.414493,0 0.748181,-0.333689 0.748181,-0.748181 V 5.8398213 C 12.666643,5.7151246 9.9233087,5.4657304 9.9233087,5.4657304 L 9.5492173,1.3507296 Z"
       style="display:inline;fill:#f7df1e;fill-opacity:1;stroke:none;stroke-width:0.0311742;enable-background:new" />
    <path
       clip-path="url(#clipPath5158)"
       sodipodi:nodetypes="csscccc"
       inkscape:connector-curvature="0"
       id="path4104"
       d="m 235.75,223.5 v 16 c 0,1.65685 1.34315,3 3,3 l 15.09,0.14 v -4.5 l -16,-17 z"
       style="display:inline;opacity:0.1;fill:#000000;fill-opacity:1;stroke:none;filter:url(#filter5162);enable-background:new"
       transform="matrix(0.24939399,0,0,0.24939399,-49.267865,-54.423743)" />
    <path
       style="display:inline;fill:#d8c109;fill-opacity:1;stroke:none;stroke-width:0.0311742;enable-background:new"
       d="m 9.5492173,1.3507296 v 3.7409099 c 0,0.4132083 0.3349739,0.7481818 0.7481827,0.7481818 h 3.740908 z"
       id="path4060"
       inkscape:connector-curvature="0" />
    <path
       id="path4233"
       d="m 3.8131554,1.3507296 c -0.4144926,0 -0.7481821,0.3336891 -0.7481821,0.7481817 v 0.062349 c 0,-0.4144931 0.3336895,-0.7481822 0.7481821,-0.7481822 h 5.7360619 v -0.062348 z"
       style="display:inline;opacity:0.2;fill:#ffffff;fill-opacity:1;stroke:none;stroke-width:0.0311742;enable-background:new"
       inkscape:connector-curvature="0" />
    <rect
       width="6.5430641"
       height="6.5430641"
       fill="#f7df1e"
       id="rect1"
       x="5.3634672"
       y="7.2494955"
       style="stroke-width:0.0103858" />
    <path
       d="m 10.023931,12.60576 c 0.224793,0.367041 0.517256,0.636829 1.034513,0.636829 0.434528,0 0.712115,-0.217178 0.712115,-0.517257 0,-0.3596 -0.285201,-0.486966 -0.763486,-0.696172 l -0.262171,-0.112486 c -0.7567569,-0.3224 -1.2594849,-0.726286 -1.2594849,-1.580114 0,-0.7865135 0.5992709,-1.3852569 1.5358279,-1.3852569 0.666764,0 1.146113,0.2320567 1.491541,0.8396575 l -0.816628,0.5243424 c -0.1798,-0.3224005 -0.37377,-0.4494105 -0.674913,-0.4494105 -0.307166,0 -0.501844,0.1948575 -0.501844,0.4494105 0,0.314605 0.194857,0.441971 0.644801,0.636828 l 0.262171,0.112315 c 0.891029,0.382097 1.394114,0.771637 1.394114,1.647428 0,0.944173 -0.7417,1.461429 -1.737772,1.461429 -0.973934,0 -1.6031409,-0.464114 -1.9110199,-1.072421 z m -3.7045853,0.09088 c 0.1647427,0.292285 0.3146001,0.539398 0.6749142,0.539398 0.3445429,0 0.5618928,-0.134812 0.5618928,-0.658972 V 9.0111773 h 1.0486854 v 3.5800577 c 0,1.085886 -0.6366496,1.580113 -1.5659424,1.580113 -0.839657,0 -1.3259141,-0.43453 -1.5732069,-0.957898 z"
       id="path1"
       style="stroke-width:0.0177143" />
  </g>
</svg>
